<?xml version="1.0" standalone="no"?>
<!DOCTYPE svg PUBLIC "-//W3C//DTD SVG 20010904//EN"
 "http://www.w3.org/TR/2001/REC-SVG-20010904/DTD/svg10.dtd">
<svg version="1.0" xmlns="http://www.w3.org/2000/svg"
 width="498.000000pt" height="498.000000pt" viewBox="0 0 498.000000 498.000000"
 preserveAspectRatio="xMidYMid meet">
<metadata>
Created by potrace 1.11, written by Peter Selinger 2001-2013
</metadata>
<g transform="translate(0.000000,498.000000) scale(0.100000,-0.100000)"
fill="#000000" stroke="none">
<path d="M3985 4713 c-38 -8 -71 -19 -73 -23 -2 -5 -22 -18 -46 -29 -39 -19
-156 -121 -156 -137 0 -3 -11 -19 -25 -36 -14 -16 -25 -36 -25 -45 0 -8 -6
-29 -14 -46 -22 -51 -37 -168 -26 -208 6 -18 10 -46 10 -61 0 -16 4 -28 9 -28
5 0 12 -18 16 -40 4 -23 18 -54 31 -69 13 -16 24 -32 24 -35 0 -9 92 -98 120
-116 12 -8 32 -23 45 -32 12 -10 52 -23 89 -30 36 -7 66 -16 66 -20 0 -5 34
-8 75 -8 41 0 75 3 75 8 0 4 29 13 65 20 38 7 73 20 85 32 11 11 25 20 30 20
37 0 190 178 190 221 0 9 5 19 11 21 21 7 28 96 29 371 l0 277 -247 0 c-137 0
-257 2 -268 4 -11 2 -51 -3 -90 -11z"/>
<path d="M1615 4365 c-16 -8 -54 -17 -83 -20 -29 -4 -55 -11 -58 -16 -3 -5
-15 -9 -27 -10 -34 -1 -129 -34 -121 -42 4 -4 -1 -7 -12 -7 -11 0 -44 -13 -74
-30 -30 -16 -75 -40 -100 -52 -25 -12 -46 -25 -48 -29 -2 -4 -25 -22 -53 -39
-27 -18 -49 -36 -49 -40 0 -5 -8 -11 -17 -14 -22 -7 -151 -132 -195 -189 -18
-23 -36 -44 -39 -47 -4 -3 -9 -14 -11 -25 -3 -18 2 -20 37 -17 22 2 47 9 55
17 8 7 35 16 60 20 24 4 51 11 60 16 14 7 69 21 143 36 15 3 27 9 27 13 0 5
22 11 50 15 27 4 52 11 56 16 10 17 60 9 83 -12 18 -17 22 -28 17 -52 -7 -36
-21 -47 -58 -47 -16 0 -28 -4 -28 -9 0 -8 -22 -15 -97 -28 -18 -3 -31 -9 -28
-13 2 -4 -30 -13 -73 -20 -42 -7 -85 -20 -94 -28 -10 -8 -28 -12 -42 -10 -14
3 -23 1 -20 -3 3 -5 -6 -9 -20 -9 -14 0 -26 -4 -26 -8 0 -5 -28 -14 -62 -20
-34 -6 -64 -16 -67 -20 -3 -5 -25 -13 -48 -17 -40 -6 -44 -10 -73 -69 -16 -34
-30 -70 -30 -79 0 -9 -4 -17 -9 -17 -5 0 -12 -24 -16 -52 -4 -29 -8 -55 -9
-58 -3 -14 38 -9 76 9 25 11 68 23 96 27 29 3 52 10 52 14 0 7 24 14 97 27 18
3 31 9 28 13 -2 4 30 13 73 20 42 7 84 19 92 26 8 7 36 15 63 19 26 4 47 11
47 15 0 4 24 11 53 15 28 4 60 8 70 10 25 5 57 -29 57 -59 0 -35 -42 -64 -105
-71 -30 -4 -59 -13 -65 -20 -6 -7 -33 -16 -61 -20 -27 -4 -49 -11 -49 -16 0
-5 -8 -9 -17 -9 -31 0 -164 -35 -158 -42 3 -3 -19 -9 -49 -12 -31 -4 -58 -12
-61 -17 -4 -5 -17 -9 -30 -9 -13 0 -27 -4 -30 -10 -3 -5 -19 -10 -36 -10 -16
0 -29 -4 -29 -8 0 -5 -32 -14 -70 -21 -54 -10 -73 -18 -82 -34 -6 -12 -13 -86
-16 -165 l-5 -144 64 7 c35 3 80 11 99 16 19 5 48 9 63 9 16 0 26 4 23 9 -4 5
29 12 71 16 43 4 83 11 88 15 10 7 42 14 130 27 22 3 45 9 50 13 6 5 57 14
115 20 58 7 114 18 125 25 11 7 45 16 75 19 30 4 84 13 120 21 146 30 173 35
196 35 13 0 24 4 24 8 0 5 43 14 95 20 52 7 114 19 137 27 24 8 73 17 111 21
37 4 67 10 67 14 0 3 43 13 95 20 52 7 92 17 90 20 -3 4 46 13 108 20 61 7
114 17 117 21 3 4 39 13 80 19 41 7 84 16 95 20 11 5 58 14 104 19 46 6 89 15
96 21 6 5 56 15 111 22 54 7 101 15 104 19 5 6 25 10 130 25 25 4 47 10 50 14
3 4 55 13 115 20 61 8 117 19 125 26 8 7 47 16 87 19 82 8 113 29 113 75 0 16
-4 31 -9 34 -5 3 -20 28 -34 55 -31 58 -71 120 -92 142 -8 9 -15 19 -15 23 0
8 -45 58 -123 137 -91 92 -245 209 -294 224 -13 3 -23 10 -23 14 0 4 -16 13
-35 21 -19 8 -35 17 -35 21 0 4 -16 10 -35 13 -19 4 -35 10 -35 14 0 8 -107
42 -132 42 -9 0 -19 4 -22 9 -3 4 -29 11 -57 15 -29 4 -68 14 -87 22 -49 20
-1041 20 -1087 -1z"/>
<path d="M4450 3737 c-14 -6 -28 -17 -33 -23 -4 -7 -21 -15 -37 -19 -17 -4
-30 -10 -30 -14 0 -4 -26 -14 -57 -21 -32 -7 -61 -17 -64 -22 -9 -14 -240 -12
-249 2 -4 6 -29 12 -56 13 -48 2 -49 2 -62 -38 -26 -77 -3 -315 31 -315 4 0 7
-6 7 -14 0 -14 68 -85 117 -122 15 -12 44 -25 63 -29 19 -4 38 -13 42 -19 5
-8 80 -11 245 -11 l238 0 3 205 c3 215 -12 342 -44 354 -8 3 -14 10 -14 17 0
20 -41 69 -58 68 -9 0 -28 -6 -42 -12z"/>
<path d="M3639 3372 c-2 -6 -22 -14 -44 -17 -64 -8 -74 -11 -81 -18 -4 -4 -13
-2 -21 4 -10 9 -13 8 -13 -1 0 -7 -7 -10 -15 -6 -8 3 -15 1 -15 -5 0 -5 -6 -9
-12 -8 -20 4 -92 -13 -105 -24 -9 -6 -13 -6 -13 2 0 7 -5 9 -12 4 -7 -4 -17
-8 -23 -9 -5 -1 -28 -5 -50 -9 -22 -4 -48 -8 -57 -8 -10 -1 -18 -4 -18 -7 0
-3 -8 -6 -17 -7 -10 -1 -36 -4 -58 -8 -22 -4 -48 -8 -57 -9 -10 -1 -20 -5 -24
-8 -3 -4 -13 -4 -22 -1 -8 4 -13 2 -10 -3 4 -5 -8 -9 -25 -8 -18 0 -36 -2 -42
-5 -5 -3 -14 -6 -20 -7 -69 -12 -114 -20 -125 -24 -3 -1 -9 -2 -14 -1 -4 1
-14 -4 -22 -10 -11 -9 -14 -9 -14 1 0 9 -4 10 -13 2 -7 -6 -30 -13 -50 -15
-20 -2 -40 -7 -44 -10 -3 -4 -19 -7 -34 -7 -15 0 -31 -5 -34 -10 -5 -8 -11 -7
-21 1 -8 6 -14 7 -14 2 0 -8 -27 -14 -77 -17 -13 0 -23 -3 -23 -6 0 -3 -12 -7
-27 -8 -15 -1 -29 -5 -32 -10 -3 -4 -22 -8 -41 -10 -55 -4 -74 -7 -85 -14 -6
-4 -23 -5 -38 -4 -15 2 -27 -1 -27 -6 0 -5 -4 -7 -9 -3 -5 3 -12 1 -15 -3 -3
-5 -19 -8 -36 -7 -16 1 -30 -2 -30 -7 0 -5 -4 -6 -10 -3 -6 3 -10 0 -10 -7 0
-10 -2 -10 -9 1 -6 9 -14 10 -22 5 -8 -5 -17 -9 -21 -10 -5 -1 -9 -3 -10 -4
-2 -1 -14 -4 -28 -5 -14 -2 -38 -6 -55 -9 -16 -3 -41 -8 -55 -10 -14 -3 -25
-5 -25 -7 0 -1 -9 -3 -20 -5 -11 -1 -33 -6 -50 -10 -16 -4 -42 -7 -57 -8 -16
0 -28 -4 -28 -8 0 -4 -7 -4 -17 -1 -9 4 -14 2 -10 -3 3 -5 -12 -9 -34 -9 -21
0 -39 -2 -39 -5 0 -3 -8 -6 -17 -7 -17 -1 -37 -5 -93 -17 -14 -3 -41 -9 -60
-12 -19 -4 -38 -12 -42 -18 -5 -8 -8 -7 -8 2 0 7 -4 11 -8 8 -5 -3 -22 -8 -38
-10 -16 -3 -40 -8 -54 -12 -14 -3 -41 -8 -60 -11 -19 -3 -41 -10 -49 -17 -12
-9 -13 -8 -6 4 8 13 6 13 -8 2 -9 -8 -21 -11 -27 -7 -5 3 -10 0 -10 -7 0 -9
-3 -9 -10 2 -7 12 -10 12 -10 1 0 -7 -6 -11 -15 -8 -8 4 -17 2 -20 -3 -3 -4
-16 -7 -30 -6 -14 2 -26 -3 -30 -12 -4 -11 -9 -11 -19 -3 -7 6 -15 8 -18 6 -3
-3 -16 -8 -29 -10 -34 -7 -91 -17 -114 -21 -11 -1 -22 -3 -25 -5 -3 -1 -9 -3
-15 -4 -5 -2 -12 -4 -15 -5 -13 -5 -48 -10 -73 -12 -15 0 -30 -5 -33 -9 -2 -5
-11 -6 -19 -2 -9 3 -15 -1 -15 -8 0 -11 -3 -11 -10 1 -5 8 -10 10 -10 5 0 -6
-10 -12 -22 -12 -66 -4 -84 -21 -68 -63 1 -3 1 -9 0 -15 -8 -38 -8 -45 1 -45
6 0 7 -6 2 -12 -11 -19 -11 -58 0 -58 6 0 6 -5 0 -12 -11 -15 -11 -58 0 -75 5
-7 5 -13 0 -13 -12 0 -10 -94 2 -102 7 -5 6 -8 0 -8 -6 0 -11 -9 -11 -20 0
-11 4 -20 8 -20 5 0 4 -9 -2 -19 -6 -13 -7 -22 0 -26 5 -3 6 -13 3 -22 -4 -9
-2 -14 3 -11 5 4 8 -15 7 -43 -1 -27 1 -49 5 -49 5 0 9 -13 10 -30 3 -52 5
-60 14 -60 5 0 7 -4 4 -9 -3 -5 4 -35 15 -67 11 -33 22 -63 23 -69 2 -5 9 -23
16 -40 7 -16 14 -32 15 -35 4 -15 68 -136 85 -160 11 -15 20 -31 20 -35 0 -3
6 -12 12 -20 7 -7 22 -25 33 -41 35 -48 68 -87 132 -153 34 -35 60 -68 57 -73
-3 -4 -1 -8 4 -8 5 0 9 -7 9 -15 0 -8 -4 -12 -8 -9 -4 2 -7 -5 -6 -16 1 -11 4
-20 7 -20 4 0 7 -7 7 -15 0 -8 -4 -12 -9 -9 -10 7 -10 1 1 -29 5 -13 6 -30 1
-37 -5 -7 -4 -24 1 -37 5 -15 5 -22 0 -18 -6 3 -9 -4 -8 -15 1 -11 4 -20 7
-20 4 0 7 -7 7 -15 0 -8 -4 -12 -8 -9 -4 2 -7 -5 -6 -16 1 -11 4 -20 7 -20 4
0 7 -7 7 -15 0 -8 -4 -12 -9 -9 -10 6 -9 -4 1 -31 5 -11 5 -27 0 -36 -4 -8 -4
-21 1 -29 5 -8 4 -22 -1 -32 -7 -12 -6 -18 1 -18 6 0 8 -5 3 -13 -12 -19 -12
-37 -1 -37 6 0 5 -6 -2 -15 -9 -11 -9 -15 -1 -15 7 0 9 -5 5 -12 -9 -14 -12
-58 -4 -58 3 0 6 -17 7 -37 2 -49 7 -69 45 -155 12 -27 25 -48 30 -48 4 0 8
-5 8 -11 0 -16 47 -69 54 -62 3 4 6 -1 6 -10 0 -9 14 -24 30 -34 17 -9 30 -20
30 -24 0 -3 18 -14 40 -24 22 -10 40 -22 40 -27 0 -4 8 -8 18 -8 9 0 30 -7 45
-15 18 -9 25 -10 20 -2 -4 7 0 7 10 -2 9 -7 17 -10 17 -6 0 4 6 3 13 -1 20
-15 52 -10 55 9 2 9 -1 17 -7 17 -6 0 -7 11 -1 29 4 15 4 34 0 41 -5 7 -4 24
1 37 6 16 5 22 -1 18 -7 -4 -7 3 0 19 5 14 6 26 1 26 -8 0 -6 52 4 78 2 6 1
12 -4 12 -9 0 -5 55 4 71 4 5 2 9 -3 9 -10 0 -9 30 2 48 4 6 3 12 -1 12 -5 0
-9 9 -9 20 0 11 4 20 9 20 4 0 5 5 1 12 -10 16 -12 58 -2 52 4 -3 8 0 8 5 0 6
-4 11 -8 11 -10 0 -6 65 4 82 4 7 3 8 -4 4 -9 -5 -9 0 -2 18 7 18 6 26 -1 26
-8 0 -8 4 -2 13 6 6 9 19 8 27 -1 8 4 21 11 28 8 7 14 10 14 6 0 -4 8 0 18 8
39 34 124 -28 105 -78 -5 -12 -3 -15 6 -9 10 6 11 3 2 -14 -9 -16 -9 -21 1
-21 9 0 9 -3 2 -8 -12 -8 -13 -56 -2 -67 4 -4 3 -16 -3 -26 -7 -14 -6 -19 3
-19 8 0 9 -3 3 -8 -13 -9 -16 -84 -3 -76 6 4 5 -3 -1 -15 -9 -16 -9 -21 1 -21
9 0 9 -3 2 -8 -13 -9 -13 -52 -1 -52 5 0 5 -5 0 -12 -12 -15 -11 -97 0 -115 5
-7 4 -13 -2 -13 -5 0 -8 -8 -6 -18 1 -9 -2 -23 -8 -30 -7 -9 -5 -11 8 -6 14 6
16 4 10 -6 -13 -21 -14 -91 -1 -83 6 4 5 -1 -3 -10 -7 -9 -10 -17 -7 -17 4 0
2 -9 -4 -20 -11 -20 -8 -20 255 -20 256 0 265 1 265 19 0 11 -5 23 -10 26 -8
5 -7 11 1 21 9 11 8 14 -2 14 -12 0 -12 2 0 9 9 6 10 11 2 15 -6 4 -8 13 -4
19 11 19 12 57 1 57 -6 0 -5 6 3 16 7 9 9 18 3 22 -12 9 -12 35 1 45 6 6 6 10
-2 14 -9 3 -10 10 -3 24 8 14 7 19 -2 19 -10 0 -10 2 1 9 9 6 10 11 2 15 -6 4
-8 13 -4 19 12 20 12 57 0 57 -7 0 -6 4 3 10 11 7 11 10 2 10 -10 0 -10 5 -1
23 15 26 14 27 -1 37 -8 5 -9 13 -4 21 13 21 14 59 1 59 -7 0 -6 4 3 10 11 7
11 10 2 10 -9 0 -10 5 -2 19 7 14 6 21 -3 24 -9 4 -9 6 1 6 7 1 11 5 7 11 -11
18 8 61 34 74 59 30 115 -1 116 -65 0 -22 4 -39 8 -39 5 0 5 -5 1 -12 -9 -15
-10 -58 -2 -80 4 -9 4 -19 1 -22 -9 -9 -9 -86 0 -86 5 0 5 -6 0 -12 -11 -19
-10 -78 2 -78 7 0 7 -3 0 -8 -11 -8 -14 -132 -3 -132 4 0 5 -6 3 -12 -11 -31
-13 -68 -4 -68 6 0 8 -4 5 -8 -3 -5 -7 -32 -10 -60 l-5 -51 258 -3 c143 -2
257 0 255 4 -2 4 0 10 6 13 8 5 7 11 -1 21 -6 8 -8 14 -3 14 4 0 3 5 -4 12 -7
7 -8 17 -3 27 5 9 10 18 12 21 1 3 -3 14 -9 26 -6 12 -7 26 -2 34 5 8 5 21 0
31 -5 9 -6 19 -3 23 9 9 9 66 0 66 -5 0 -5 6 0 13 10 17 11 67 0 67 -4 0 -5 6
0 13 11 17 11 110 0 124 -6 8 -6 13 1 13 11 0 9 31 -3 49 -3 5 -1 12 4 15 10
7 9 25 -2 44 -5 6 -4 12 1 12 9 0 10 29 0 45 -11 20 23 76 55 90 27 11 36 11
60 -1 15 -8 31 -23 34 -32 4 -9 11 -20 17 -24 7 -5 6 -8 -3 -8 -11 0 -11 -3
-1 -15 10 -12 10 -15 0 -15 -10 0 -10 -3 0 -15 10 -12 10 -15 -1 -15 -12 0
-12 -2 0 -9 7 -5 9 -11 4 -14 -11 -7 -11 -37 1 -55 4 -7 2 -12 -5 -12 -8 0 -8
-4 1 -15 10 -12 10 -15 0 -15 -10 0 -10 -3 -1 -14 9 -11 9 -15 -1 -19 -10 -4
-10 -6 1 -6 11 -1 11 -4 1 -16 -10 -12 -10 -15 0 -15 9 0 10 -3 1 -13 -8 -10
-7 -17 1 -25 9 -9 9 -12 -1 -12 -10 0 -11 -3 -2 -14 9 -11 9 -15 -1 -19 -10
-4 -10 -6 1 -6 11 -1 11 -4 1 -16 -10 -12 -10 -15 0 -15 10 0 10 -3 0 -15 -10
-12 -10 -15 0 -15 10 0 10 -3 0 -15 -9 -10 -9 -15 -1 -15 13 0 10 -22 -4 -32
-6 -5 -5 -8 4 -8 11 0 11 -3 1 -15 -9 -11 -9 -15 -1 -15 8 0 9 -5 2 -18 -7
-13 -6 -23 1 -30 9 -9 9 -12 -1 -12 -9 0 -10 -4 -4 -12 11 -15 11 -28 0 -46
-5 -6 -4 -12 1 -12 5 0 9 -7 9 -15 0 -8 -3 -15 -6 -15 -4 0 -8 -12 -9 -26 -2
-25 -1 -26 46 -20 70 9 103 16 122 26 10 5 20 6 24 3 3 -3 6 -1 6 6 0 7 4 10
9 6 6 -3 14 3 20 12 5 10 12 17 15 16 13 -4 46 10 46 20 0 6 3 7 6 4 4 -3 15
5 26 18 11 14 25 22 31 18 7 -3 9 -3 6 1 -4 4 10 25 32 47 21 21 36 39 33 39
-3 0 4 13 15 29 18 25 39 68 47 96 1 6 7 24 12 40 5 17 8 40 7 52 -1 13 1 23
4 23 4 0 6 149 6 330 0 182 3 330 7 330 5 0 8 7 8 16 0 8 3 13 8 11 4 -3 13 1
20 9 7 8 11 14 9 14 -2 0 19 24 47 53 28 28 60 65 71 80 11 16 31 42 45 59 14
17 25 33 25 37 1 9 38 65 50 73 5 4 6 8 1 8 -5 0 -1 9 10 21 10 12 18 23 17
25 -4 10 11 44 20 44 6 0 7 3 4 6 -3 4 -1 16 5 28 7 11 11 24 10 29 -1 4 3 7
10 7 6 0 9 3 6 6 -4 3 0 20 7 39 8 18 11 35 8 39 -4 3 -2 6 4 6 10 0 22 40 25
88 1 12 5 22 8 22 4 0 7 6 7 13 1 6 5 35 9 62 4 28 7 60 7 73 1 12 4 22 7 22
10 0 6 44 -5 52 -7 5 -7 8 0 8 6 0 10 42 11 104 0 64 -4 102 -10 99 -5 -4 -6
-1 0 8 12 20 13 170 1 162 -6 -4 -7 -1 -1 8 12 20 14 120 1 112 -6 -4 -7 -1
-1 8 12 20 14 120 1 112 -6 -4 -7 -1 -1 8 12 19 14 91 2 106 -5 6 -5 14 0 17
11 6 9 36 -3 55 -6 10 -4 12 5 6 7 -4 2 11 -10 33 -13 23 -27 42 -32 42 -4 0
-8 7 -8 15 0 8 -4 15 -10 15 -5 0 -10 7 -10 15 0 8 -5 15 -11 15 -5 0 -8 4 -5
9 3 5 -1 14 -8 20 -8 7 -13 23 -11 36 1 14 -2 25 -7 25 -5 0 -6 5 -3 10 3 6 1
10 -4 10 -6 0 -11 6 -11 14 0 9 -10 13 -25 12 -14 0 -25 -5 -25 -11 0 -5 -4
-4 -9 4 -5 8 -10 9 -12 3z m-2385 -594 c-4 -7 -3 -8 4 -4 21 13 52 15 52 4 0
-7 6 -6 15 2 8 7 15 9 15 4 0 -5 23 -10 50 -11 28 0 56 -6 64 -12 7 -6 16 -8
19 -4 4 3 13 0 22 -7 8 -7 15 -10 15 -6 0 4 11 -1 25 -10 14 -9 25 -12 25 -8
0 5 4 5 8 -1 4 -5 23 -19 42 -29 19 -11 39 -25 43 -33 4 -7 14 -13 21 -13 8 0
17 -7 20 -16 3 -8 10 -12 16 -9 5 3 10 1 10 -5 0 -6 11 -21 24 -33 29 -28 106
-146 106 -164 0 -7 5 -13 11 -13 5 0 8 -4 5 -8 -3 -5 2 -21 10 -37 8 -16 12
-35 10 -42 -3 -7 -1 -13 4 -13 5 0 7 -9 5 -20 -2 -11 1 -20 6 -20 6 0 6 -8 -1
-20 -6 -11 -7 -20 -1 -20 16 0 1 -182 -19 -220 -5 -10 -6 -20 -3 -24 3 -3 1
-6 -5 -6 -6 0 -9 -9 -7 -20 2 -12 -2 -23 -9 -26 -7 -3 -13 -11 -13 -19 0 -21
-85 -145 -95 -139 -4 3 -8 -1 -8 -9 0 -8 -7 -18 -16 -21 -8 -3 -12 -10 -9 -16
3 -5 1 -10 -4 -10 -6 0 -13 0 -16 -1 -2 0 -18 -13 -36 -30 -17 -16 -34 -28
-36 -25 -3 2 -13 -4 -24 -15 -11 -11 -24 -17 -28 -14 -5 2 -14 -2 -21 -10 -7
-8 -16 -12 -21 -9 -5 3 -9 0 -9 -7 0 -7 -3 -10 -6 -6 -3 3 -24 -1 -46 -9 -23
-8 -43 -12 -46 -9 -3 3 -14 -3 -25 -12 -11 -10 -18 -13 -15 -8 4 6 -33 10
-103 9 -60 0 -109 2 -109 6 0 3 -23 12 -52 19 -52 14 -130 50 -136 64 -2 4 -8
7 -13 7 -12 0 -43 25 -103 86 -53 52 -68 71 -88 114 -7 14 -15 27 -18 30 -6 5
-37 79 -38 90 -1 7 -12 42 -23 68 -7 17 -6 21 2 16 8 -5 9 -3 4 7 -15 23 -13
156 2 222 23 102 25 107 34 107 5 0 9 9 9 19 0 11 5 23 10 26 6 4 8 11 5 16
-4 5 -2 9 4 9 11 0 47 60 43 73 -1 4 1 6 5 5 5 -1 33 23 64 55 31 31 62 57 68
57 6 0 11 4 11 9 0 5 11 12 25 15 14 4 25 11 25 16 0 6 6 10 13 10 6 0 25 7
40 15 15 8 43 17 62 21 19 3 35 9 35 13 0 4 16 6 35 6 19 -1 40 2 47 7 18 11
20 10 12 -4z m1731 2 c9 8 15 8 20 0 4 -7 12 -7 26 0 14 8 19 7 20 -2 0 -10 2
-10 6 0 2 6 10 9 16 5 11 -7 59 -13 100 -14 9 0 17 -5 17 -10 0 -6 3 -8 8 -5
4 2 30 -6 57 -19 28 -13 56 -24 63 -24 6 -1 12 -6 12 -13 0 -6 3 -9 6 -5 3 3
18 -5 32 -19 15 -13 32 -24 39 -24 6 0 14 -9 18 -20 3 -11 10 -19 14 -17 11 3
91 -92 91 -108 0 -7 7 -16 16 -19 8 -3 12 -10 9 -16 -3 -5 -1 -10 4 -10 6 0
11 -7 11 -15 0 -8 9 -31 20 -50 11 -20 15 -33 8 -29 -10 6 -10 5 -2 -7 14 -17
35 -110 28 -121 -3 -4 1 -8 8 -9 7 0 8 -3 2 -5 -9 -4 -11 -37 -4 -69 1 -5 1
-12 0 -15 -2 -3 -4 -23 -5 -46 -1 -22 -7 -50 -13 -61 -6 -11 -9 -23 -5 -26 3
-4 0 -13 -7 -22 -7 -8 -9 -15 -5 -15 4 0 2 -7 -5 -15 -7 -8 -9 -15 -4 -15 5 0
2 -6 -7 -13 -9 -7 -16 -14 -17 -17 -3 -19 -19 -49 -39 -76 -13 -17 -23 -37
-23 -44 0 -7 -3 -10 -6 -7 -4 4 -20 -10 -35 -30 -16 -20 -29 -33 -29 -29 0 3
-12 -5 -27 -18 -45 -40 -104 -77 -113 -71 -4 3 -10 1 -12 -4 -1 -5 -10 -11
-18 -13 -8 -2 -18 -6 -21 -10 -3 -5 -17 -9 -32 -10 -15 -1 -27 -6 -27 -10 0
-4 -7 -5 -15 -2 -9 4 -15 1 -15 -7 0 -10 -3 -10 -12 -1 -8 8 -15 8 -24 1 -8
-6 -36 -9 -64 -7 -29 2 -50 -1 -51 -7 0 -5 -3 -4 -6 4 -5 11 -7 11 -14 0 -6
-10 -9 -11 -9 -1 0 6 -5 12 -11 12 -5 0 -7 -6 -3 -12 6 -9 3 -9 -9 0 -9 8 -21
11 -27 7 -5 -3 -10 -2 -10 4 0 5 -9 8 -20 6 -11 -2 -20 1 -20 6 0 6 -5 7 -10
4 -6 -4 -17 -1 -25 5 -8 7 -15 9 -15 5 0 -4 -6 -2 -13 4 -8 6 -17 8 -20 4 -4
-3 -9 1 -13 10 -3 9 -12 13 -20 10 -8 -3 -14 -1 -14 5 0 5 -8 12 -17 16 -20 6
-48 24 -74 46 -55 48 -99 92 -99 101 0 5 -4 9 -10 9 -5 0 -10 6 -10 13 0 7 -8
22 -17 33 -25 28 -43 61 -43 79 0 8 -5 15 -11 15 -5 0 -8 4 -4 9 3 5 1 12 -4
16 -6 3 -8 12 -4 20 3 8 1 15 -3 15 -5 0 -10 17 -12 37 -1 20 -7 40 -13 44 -8
4 -8 12 -1 26 6 10 7 24 3 31 -7 12 -7 35 4 112 7 59 10 70 22 100 6 14 9 28
6 33 -2 4 1 7 7 7 6 0 8 5 5 10 -3 6 -1 10 4 10 6 0 11 3 10 8 -2 16 14 52 24
52 6 0 8 3 4 6 -5 6 0 15 31 49 7 8 11 15 8 15 -7 0 81 86 121 117 15 13 34
23 41 23 6 0 12 3 12 8 0 6 66 41 90 47 3 1 23 6 45 13 22 6 52 13 67 14 15 2
31 7 35 12 4 4 9 2 11 -4 3 -8 8 -8 17 0z"/>
<path d="M1234 2618 c-2 -3 -15 -5 -29 -3 -14 1 -25 -2 -25 -7 0 -5 -4 -7 -9
-3 -5 3 -13 0 -16 -6 -4 -5 -13 -8 -21 -5 -8 3 -14 1 -14 -5 0 -6 -4 -7 -10
-4 -5 3 -10 1 -10 -5 0 -6 -4 -8 -10 -5 -5 3 -10 2 -10 -4 0 -5 -9 -12 -20
-16 -23 -7 -130 -110 -130 -124 0 -6 -8 -20 -17 -31 -10 -11 -16 -23 -15 -27
2 -3 -1 -9 -8 -13 -6 -4 -12 -17 -13 -28 -1 -12 -4 -22 -7 -22 -6 0 -8 -16
-13 -85 -1 -19 -6 -35 -11 -35 -4 0 -5 -8 -1 -17 4 -10 8 -33 8 -50 0 -18 4
-33 8 -33 4 0 6 -8 4 -17 -1 -10 2 -27 8 -38 6 -11 12 -29 14 -40 2 -10 7 -22
11 -25 4 -3 13 -17 21 -32 8 -16 18 -28 23 -28 4 0 8 -4 8 -9 0 -12 52 -71 64
-71 5 0 17 -10 27 -22 11 -11 19 -17 19 -13 0 4 8 1 18 -7 9 -9 28 -19 42 -23
14 -4 34 -15 44 -24 11 -9 16 -10 12 -3 -4 6 -2 12 3 12 6 0 11 -4 11 -10 0
-5 13 -8 30 -6 16 2 31 -2 34 -8 3 -7 8 -7 14 3 5 7 12 9 15 4 4 -6 25 -7 51
-3 24 3 51 5 60 4 9 -1 16 1 16 5 0 4 6 8 13 9 32 3 51 10 55 20 2 6 9 9 15 6
12 -4 40 13 78 49 11 9 19 15 19 12 0 -3 20 17 44 44 46 52 91 136 102 192 17
86 5 249 -19 249 -4 0 -5 5 -2 10 17 27 -134 220 -172 220 -7 0 -13 3 -13 8 0
7 -52 33 -75 38 -5 2 -24 7 -42 12 -17 6 -34 8 -37 4 -3 -3 -6 1 -6 9 0 11 -2
11 -10 -1 -5 -8 -10 -10 -10 -4 0 11 -109 14 -116 2z"/>
<path d="M2996 2621 c-3 -4 -19 -6 -36 -5 -35 2 -113 -23 -153 -49 -14 -9 -29
-17 -33 -17 -14 0 -87 -77 -125 -132 -22 -32 -37 -58 -33 -58 3 0 -1 -11 -10
-24 -16 -26 -27 -79 -27 -134 0 -22 -4 -30 -12 -25 -7 4 -6 0 2 -10 7 -9 10
-17 7 -17 -4 0 -2 -10 5 -21 9 -17 8 -20 -2 -14 -8 5 -10 4 -5 -3 4 -7 9 -22
11 -34 3 -13 9 -32 14 -43 5 -11 17 -39 26 -62 32 -77 169 -203 221 -203 8 0
12 -4 9 -10 -5 -8 31 -15 58 -11 4 0 7 -3 7 -7 0 -10 6 -11 94 -12 71 -1 133
8 141 21 3 4 14 6 25 4 11 -2 20 1 20 7 0 5 7 7 16 4 8 -3 12 -2 9 4 -3 6 0
10 7 10 32 0 179 142 184 178 1 7 9 24 18 36 8 13 17 35 18 49 2 14 10 33 18
43 9 11 10 15 3 10 -14 -8 -18 6 -5 18 11 11 9 80 -3 88 -6 5 -5 8 2 8 9 0 10
7 4 23 -4 12 -6 27 -4 34 2 6 -1 14 -6 18 -6 3 -11 17 -11 30 0 26 -52 116
-87 153 -13 13 -23 26 -23 31 0 4 -16 16 -35 27 -19 10 -35 21 -35 25 0 3 -19
14 -42 25 -24 10 -45 21 -48 24 -3 3 -16 7 -30 9 -35 5 -55 9 -55 12 0 1 -10
3 -22 4 -13 1 -23 -2 -23 -7 0 -5 -6 -6 -12 -1 -18 11 -37 13 -42 4z"/>
<path d="M436 1533 c5 -5 12 -12 16 -18 4 -6 8 -2 8 8 0 9 -7 17 -17 17 -9 0
-12 -3 -7 -7z"/>
</g>
</svg>
